<svg xmlns="http://www.w3.org/2000/svg" viewBox="0 0 64 64" role="img" aria-label="Logo">
  <defs>
    <linearGradient id="g" x1="0" y1="0" x2="1" y2="1">
      <stop offset="0%" stop-color="#3b82f6"/>
      <stop offset="60%" stop-color="#6366f1"/>
      <stop offset="100%" stop-color="#8b5cf6"/>
    </linearGradient>
  </defs>
  <circle cx="32" cy="32" r="30" fill="url(#g)" stroke="#ffffff" stroke-width="2"/>
  <path d="M20 42V22h8.8c2.9 0 4.9 1.8 4.9 4.5 0 2-1.2 3.5-3 4.1 2.4.5 3.9 2.4 3.9 4.9 0 3.3-2.3 6.5-6.9 6.5H20zm6.7-12.4c1.5 0 2.5-.9 2.5-2.3 0-1.3-1-2.2-2.5-2.2H24v4.5h2.7zm.4 7.8c1.9 0 3.1-1.2 3.1-2.9 0-1.6-1.2-2.8-3.1-2.8H24v5.7h3.1zM40.3 42V22h3.9l7.8 14.6V22h4v20h-3.9l-7.9-14.9V42h-3.9z" fill="#fff"/>
</svg>
